<?xml version="1.0" encoding="UTF-8"?><svg id="Camada_1" xmlns="http://www.w3.org/2000/svg" viewBox="0 0 319.29 84.42"><defs><style>.cls-1{letter-spacing:0em;}.cls-2,.cls-3{fill:#fff;}.cls-4{letter-spacing:0em;}.cls-5{letter-spacing:.02em;}.cls-6{fill:none;stroke:#fff;stroke-miterlimit:10;stroke-width:3px;}.cls-7{letter-spacing:0em;}.cls-8{letter-spacing:0em;}.cls-9{letter-spacing:0em;}.cls-10{letter-spacing:0em;}.cls-3{font-family:MyriadPro-Regular, 'Myriad Pro';font-size:158%;}</style></defs><path class="cls-2" d="m2.19,14.26c0-4.49,1.24-7.7,3.71-9.63,2.47-1.93,5.43-2.89,8.88-2.89,9.57,0,17.02.36,22.33,1.09v11.09h-18.51c-1.09,0-1.89.28-2.42.85-.52.57-.78,1.24-.78,2.01v5.72l18.31.68v10.48l-18.31.68v17.97H2.19V14.26Z"/><path class="cls-2" d="m43.23,1.74h13.2v50.57h-13.2V1.74Z"/><path class="cls-2" d="m64.6,40.67V14.26c0-4.49,1.24-7.7,3.71-9.63,2.47-1.93,5.43-2.89,8.88-2.89,8.17,0,15.61.34,22.33,1.02v11.16h-18.24c-2.31,0-3.47,1-3.47,2.99v4.22l18.31.68v10.48l-18.31.68v3.81c0,1.18.26,2.07.78,2.65.52.59,1.24.88,2.14.88h18.79v11.16c-2.81.41-6.21.71-10.18.92-3.97.2-7.77.31-11.4.31-8.89,0-13.34-4.02-13.34-12.05Z"/><path class="cls-2" d="m106.39,1.74h20.96c10.21,0,15.31,4.49,15.31,13.48,0,2.95-.58,5.34-1.74,7.18s-2.89,3.05-5.21,3.64c2.54.64,4.59,2.01,6.16,4.12,1.57,2.11,2.35,4.87,2.35,8.27,0,4.9-1.31,8.44-3.91,10.62-2.61,2.18-6.59,3.27-11.95,3.27h-21.98V1.74Zm20.83,19.87c.95,0,1.68-.37,2.18-1.12.5-.75.75-1.71.75-2.89,0-1.41-.28-2.43-.85-3.06-.57-.64-1.26-.95-2.08-.95h-7.62v8.03h7.62Zm.75,18.85c1.18,0,2.1-.4,2.76-1.19.66-.79.99-1.87.99-3.23s-.33-2.44-.99-3.23c-.66-.79-1.58-1.19-2.76-1.19h-8.37v8.85h8.37Z"/><path class="cls-6" d="m163.09,13.82h-12.73V1.98h38.66v11.84h-12.73v38.73h-13.2V13.82Z"/><path class="cls-6" d="m193.85,40.91V14.5c0-4.49,1.24-7.7,3.71-9.63,2.47-1.93,5.43-2.89,8.88-2.89,8.17,0,15.61.34,22.33,1.02v11.16h-18.24c-2.31,0-3.47,1-3.47,2.99v4.22l18.31.68v10.48l-18.31.68v3.81c0,1.18.26,2.07.78,2.65.52.59,1.24.88,2.14.88h18.79v11.16c-2.81.41-6.21.71-10.18.92-3.97.2-7.77.31-11.4.31-8.89,0-13.34-4.02-13.34-12.05Z"/><path class="cls-6" d="m242.69,50.91c-2.66-1.36-4.71-3.92-6.16-7.69-1.45-3.77-2.18-9.14-2.18-16.13s.76-12.01,2.28-15.76c1.52-3.74,3.62-6.32,6.3-7.72,2.68-1.41,6.01-2.11,10.01-2.11,3.77,0,7.04.27,9.83.82,2.79.54,5.05,1.18,6.77,1.91v10.28c-1.5-.32-3.45-.59-5.85-.82-2.41-.23-5.01-.34-7.83-.34-2.22,0-3.9.33-5.04.99-1.13.66-1.96,1.96-2.48,3.91-.52,1.95-.78,4.95-.78,8.98s.21,6.74.65,8.64c.43,1.91,1.24,3.26,2.42,4.05,1.18.79,2.97,1.19,5.38,1.19,5.94,0,10.46-.2,13.54-.61v10.28c-3.63,1.45-9.17,2.18-16.61,2.18-4.18,0-7.59-.68-10.24-2.04Z"/><path class="cls-6" d="m276.41,1.98h13.2v19.47h14.97V1.98h13.2v50.57h-13.2v-19.26h-14.97v19.26h-13.2V1.98Z"/><text class="cls-3" transform="translate(0 78.15)"><tspan class="cls-8" x="0" y="0">Educação conectada ao futuro</tspan></text></svg>